<?xml version="1.0" encoding="UTF-8" standalone="no"?>
<!-- Uploaded to: SVG Repo, www.svgrepo.com, Generator: SVG Repo Mixer Tools -->

<svg
   height="16"
   width="16"
   version="1.1"
   id="Layer_1"
   viewBox="0 0 16 16"
   xml:space="preserve"
   sodipodi:docname="event.svg"
   inkscape:version="1.4 (e7c3feb100, 2024-10-09)"
   xmlns:inkscape="http://www.inkscape.org/namespaces/inkscape"
   xmlns:sodipodi="http://sodipodi.sourceforge.net/DTD/sodipodi-0.dtd"
   xmlns="http://www.w3.org/2000/svg"
   xmlns:svg="http://www.w3.org/2000/svg"><defs
   id="defs3" /><sodipodi:namedview
   id="namedview3"
   pagecolor="#505050"
   bordercolor="#eeeeee"
   borderopacity="1"
   inkscape:showpageshadow="0"
   inkscape:pageopacity="0"
   inkscape:pagecheckerboard="0"
   inkscape:deskcolor="#505050"
   inkscape:zoom="19.08"
   inkscape:cx="13.757862"
   inkscape:cy="14.570231"
   inkscape:window-width="1920"
   inkscape:window-height="1052"
   inkscape:window-x="0"
   inkscape:window-y="0"
   inkscape:window-maximized="1"
   inkscape:current-layer="Layer_1" />
<g
   transform="matrix(0.03183357,0,0,0.03183357,0.46747588,0.04541048)"
   id="g2"
   style="stroke-width:31.4134">
	<path
   style="fill:#ecf4f7;stroke-width:31.4134"
   d="m 236.622,2.414 c 37.547,0 68.267,30.72 68.267,68.267 0,37.547 -30.72,68.267 -68.267,68.267 -37.547,0 -68.267,-30.72 -68.267,-68.267 0,-37.547 30.721,-68.267 68.267,-68.267 z M 176.889,173.08 c -9.387,0 -17.067,-7.68 -17.067,-17.067 0,-9.387 7.68,-17.067 17.067,-17.067 h 59.733 59.733 c 9.387,0 17.067,7.68 17.067,17.067 0,9.387 -7.68,17.067 -17.067,17.067 0,0 -8.533,25.6 -8.533,85.333 0,59.733 42.667,102.4 42.667,136.533 0,17.067 -17.067,34.133 -34.133,34.133 H 176.889 c -17.067,0 -34.133,-17.067 -34.133,-34.133 0,-34.133 42.667,-76.8 42.667,-136.533 0,-12.8 -1.707,-34.133 -4.267,-51.2 z"
   id="path1" />
	<path
   style="fill:#aab1ba;stroke-width:31.4134"
   d="m 364.622,463.214 v 34.133 h -256 v -34.133 c 0,-17.067 17.067,-34.133 34.133,-34.133 h 34.133 119.467 34.133 c 17.068,-0.001 34.134,17.066 34.134,34.133"
   id="path2" />
</g>
<path
   style="fill:#000000;fill-opacity:1;stroke-width:1"
   d="M 12.084752,16 H 3.9353577 C 3.8538602,16 3.7995242,15.945657 3.7995242,15.864166 V 14.77759 c 0,-0.624797 0.5976122,-1.22241 1.2224097,-1.22241 H 5.3750634 C 5.0762416,13.310699 4.8860993,12.957569 4.8860993,12.604407 c 0,-0.488964 0.2444826,-1.032267 0.5433045,-1.629878 0.3803149,-0.787786 0.8149387,-1.6570333 0.8149387,-2.7164548 0,-0.3259758 -0.054343,-0.8964332 -0.1358346,-1.629879 0,-0.081494 0.054342,-0.1358335 0.1086524,-0.1629874 0.081498,0 0.1358346,0.054339 0.1629884,0.1086469 0.081497,0.7334457 0.1358335,1.3039031 0.1358335,1.6570338 0,1.1137609 -0.4346238,2.0373485 -0.8420926,2.8251345 -0.2716364,0.570457 -0.5161179,1.086574 -0.5161179,1.52123 0,0.461811 0.4889641,0.950774 0.9507732,0.950774 0.081498,0 0.1358346,0.05434 0.1358346,0.135834 0,0.0815 -0.054343,0.135834 -0.1358346,0.135834 H 5.0219687 c -0.4618091,0 -0.9507721,0.488964 -0.9507721,0.950773 v 0.950773 h 7.8777584 v -0.923587 c 0,-0.461809 -0.488965,-0.950774 -0.950774,-0.950774 H 7.19512 c -0.081497,0 -0.1358345,-0.05434 -0.1358345,-0.135833 0,-0.0815 0.054343,-0.135834 0.1358345,-0.135834 h 2.7164546 c 0.4618094,0 0.9507724,-0.488964 0.9507724,-0.950774 0,-0.434623 -0.244482,-0.923587 -0.516117,-1.521231 C 9.9659095,10.26827 9.5041319,9.3718349 9.5041319,8.2580742 c 0,-1.8472067 0.2444826,-2.6893005 0.2716364,-2.7436398 v -0.027154 c 0,-0.027154 0.027155,-0.027154 0.027155,-0.027154 0.027155,-0.027154 0.054343,-0.027154 0.081497,-0.027154 0.2173277,0 0.4074697,-0.1901424 0.4074697,-0.40747 0,-0.2173277 -0.190142,-0.40747 -0.4074697,-0.40747 H 6.0813911 c -0.2173277,0 -0.407471,0.1901423 -0.407471,0.40747 0,0.2173276 0.1901433,0.40747 0.407471,0.40747 h 2.7164535 c 0.081498,0 0.1358335,0.054339 0.1358335,0.1358333 0,0.081494 -0.054343,0.1358345 -0.1358335,0.1358345 H 6.0813911 c -0.3803161,0 -0.6791063,-0.2988219 -0.6791063,-0.6791056 0,-0.380316 0.2988218,-0.6791065 0.6791063,-0.6791065 H 6.8963308 C 6.1628809,3.9661131 5.6739157,3.1783594 5.6739157,2.3090801 5.6739157,1.0322675 6.7061843,-3.0312084e-8 7.9829005,-3.0312084e-8 9.259619,-3.0312084e-8 10.291885,1.0322675 10.291885,2.3089844 c 0,0.8692793 -0.4889628,1.657033 -1.2224083,2.0373489 h 0.8149397 c 0.3803146,0 0.6791056,0.2988219 0.6791056,0.6791057 0,0.3259758 -0.244483,0.6247975 -0.5704587,0.6791056 -0.054342,0.2444816 -0.2444815,1.0865745 -0.2444815,2.5806523 0,1.0594206 0.4346242,1.9287001 0.8149402,2.7164531 0.29882,0.597612 0.543303,1.140916 0.543303,1.629879 0,0.353131 -0.217328,0.706292 -0.488964,0.950774 h 0.353129 c 0.624798,0 1.22241,0.597612 1.22241,1.222409 v 1.086608 c 0.02719,0.05434 -0.02716,0.108674 -0.108652,0.108674 z M 8.0100544,0.24448158 c -1.1137606,0 -2.0373473,0.92358802 -2.0373473,2.03734892 0,1.1137607 0.9235867,2.0373489 2.0373473,2.0373489 1.1137627,0 2.0373496,-0.9235882 2.0373496,-2.0373489 0,-1.1137609 -0.9235869,-2.03734891 -2.0373496,-2.03734892 z M 9.0694767,2.1460283 c -0.054342,0 -0.1086524,-0.05434 -0.1358334,-0.1086481 C 8.8521458,1.7114044 8.5805126,1.4397689 8.254537,1.3582747 8.1730395,1.3311208 8.1458846,1.2767816 8.1458846,1.1952873 8.1730395,1.1137931 8.227382,1.0866392 8.3088719,1.0866392 c 0.4346248,0.1086481 0.7877859,0.4618092 0.8964339,0.8964331 0.027155,0.081494 -0.027155,0.1358344 -0.1086524,0.1629884 0,-4.05e-5 -0.027188,-4.05e-5 -0.027188,-4.05e-5 z"
   id="path3" />
</svg>
