<?xml version="1.0" encoding="UTF-8" standalone="no"?>
<!-- Uploaded to: SVG Repo, www.svgrepo.com, Generator: SVG Repo Mixer Tools -->

<svg
   fill="#000000"
   width="16"
   height="16"
   viewBox="0 0 16 16"
   version="1.1"
   id="svg1"
   sodipodi:docname="visibility-off-svgrepo-com.svg"
   xml:space="preserve"
   inkscape:version="1.4 (e7c3feb100, 2024-10-09)"
   xmlns:inkscape="http://www.inkscape.org/namespaces/inkscape"
   xmlns:sodipodi="http://sodipodi.sourceforge.net/DTD/sodipodi-0.dtd"
   xmlns="http://www.w3.org/2000/svg"
   xmlns:svg="http://www.w3.org/2000/svg"><defs
     id="defs1" /><sodipodi:namedview
     id="namedview1"
     pagecolor="#505050"
     bordercolor="#eeeeee"
     borderopacity="1"
     inkscape:showpageshadow="0"
     inkscape:pageopacity="0"
     inkscape:pagecheckerboard="0"
     inkscape:deskcolor="#505050"
     showgrid="true"
     inkscape:zoom="28.859355"
     inkscape:cx="10.966981"
     inkscape:cy="9.7368773"
     inkscape:window-width="2194"
     inkscape:window-height="1162"
     inkscape:window-x="0"
     inkscape:window-y="0"
     inkscape:window-maximized="1"
     inkscape:current-layer="svg1"><inkscape:grid
       id="grid1"
       units="px"
       originx="0"
       originy="0"
       spacingx="1"
       spacingy="1"
       empcolor="#0099e5"
       empopacity="0.30196078"
       color="#0099e5"
       opacity="0.14901961"
       empspacing="5"
       enabled="true"
       visible="true" /></sodipodi:namedview><g
     style="fill:#ffffff;stroke:#000000;stroke-opacity:1;stroke-width:0.47233865;stroke-dasharray:none"
     id="g1"
     transform="matrix(0.63636363,0,0,0.63391387,0.36999999,0.0538948)"><path
       d="m 12,7 c 2.76,0 5,2.24 5,5 0,0.65 -0.13,1.26 -0.36,1.83 l 2.92,2.92 c 1.51,-1.26 2.7,-2.89 3.43,-4.75 -1.73,-4.39 -6,-7.5 -11,-7.5 -1.4,0 -2.74,0.25 -3.98,0.7 l 2.16,2.16 C 10.74,7.13 11.35,7 12,7 Z M 2,4.27 4.28,6.55 4.74,7.01 C 3.08,8.3 1.78,10.02 1,12 c 1.73,4.39 6,7.5 11,7.5 1.55,0 3.03,-0.3 4.38,-0.84 L 16.8,19.08 19.73,22 21,20.73 3.27,3 Z M 7.53,9.8 9.08,11.35 C 9.03,11.56 9,11.78 9,12 c 0,1.66 1.34,3 3,3 0.22,0 0.44,-0.03 0.65,-0.08 l 1.55,1.55 C 13.53,16.8 12.79,17 12,17 9.24,17 7,14.76 7,12 7,11.21 7.2,10.47 7.53,9.8 Z m 4.31,-0.78 3.15,3.15 0.02,-0.16 c 0,-1.66 -1.34,-3 -3,-3 z"
       id="path1-5"
       style="fill:#ffffff;stroke:#000000;stroke-opacity:1;stroke-width:0.47233865;stroke-dasharray:none" /></g></svg>
