<?xml version="1.0" encoding="UTF-8" standalone="no"?>
<!-- Uploaded to: SVG Repo, www.svgrepo.com, Generator: SVG Repo Mixer Tools -->

<svg
   fill="#000000"
   width="16"
   height="16"
   viewBox="0 0 16 16"
   version="1.1"
   id="svg1"
   sodipodi:docname="visibility-svgrepo-com.svg"
   xml:space="preserve"
   inkscape:version="1.4 (e7c3feb100, 2024-10-09)"
   xmlns:inkscape="http://www.inkscape.org/namespaces/inkscape"
   xmlns:sodipodi="http://sodipodi.sourceforge.net/DTD/sodipodi-0.dtd"
   xmlns="http://www.w3.org/2000/svg"
   xmlns:svg="http://www.w3.org/2000/svg"><defs
     id="defs1" /><sodipodi:namedview
     id="namedview1"
     pagecolor="#505050"
     bordercolor="#eeeeee"
     borderopacity="1"
     inkscape:showpageshadow="0"
     inkscape:pageopacity="0"
     inkscape:pagecheckerboard="0"
     inkscape:deskcolor="#505050"
     showgrid="true"
     inkscape:zoom="28.859355"
     inkscape:cx="10.966981"
     inkscape:cy="9.7368773"
     inkscape:window-width="2194"
     inkscape:window-height="1162"
     inkscape:window-x="0"
     inkscape:window-y="0"
     inkscape:window-maximized="1"
     inkscape:current-layer="svg1"><inkscape:grid
       id="grid1"
       units="px"
       originx="0"
       originy="0"
       spacingx="1"
       spacingy="1"
       empcolor="#0099e5"
       empopacity="0.30196078"
       color="#0099e5"
       opacity="0.14901961"
       empspacing="5"
       enabled="true"
       visible="true" /></sodipodi:namedview><path
     d="M 8.0000001,2.9065072 C 4.8181819,2.9065072 2.1009091,4.8779793 1,7.6608613 2.1009091,10.443743 4.8181819,12.415215 8.0000001,12.415215 11.181818,12.415215 13.89909,10.443743 15,7.6608613 13.89909,4.8779793 11.181818,2.9065072 8.0000001,2.9065072 Z m 0,7.9239238 c -1.7563637,0 -3.1818182,-1.4199674 -3.1818182,-3.1695697 0,-1.7496023 1.4254545,-3.1695694 3.1818182,-3.1695694 1.7563637,0 3.1818179,1.4199671 3.1818179,3.1695694 0,1.7496023 -1.4254542,3.1695697 -3.1818179,3.1695697 z m 0,-5.0713114 c -1.0563637,0 -1.9090909,0.8494446 -1.9090909,1.9017417 0,1.052297 0.8527272,1.9017416 1.9090909,1.9017416 1.0563637,0 1.909091,-0.8494446 1.909091,-1.9017416 0,-1.0522971 -0.8527273,-1.9017417 -1.909091,-1.9017417 z"
     id="path1"
     style="stroke-width:0.30000001;fill:#ffffff;fill-opacity:1;stroke:#000000;stroke-opacity:1;stroke-dasharray:none" /></svg>
