<?xml version="1.0" encoding="UTF-8" standalone="no"?>
<!-- Created with Inkscape (http://www.inkscape.org/) -->

<svg
   version="1.1"
   id="svg1"
   width="50.799999mm"
   height="63.5mm"
   viewBox="0 0 192.00024 240.0003"
   sodipodi:docname="tilemarks.svg"
   inkscape:version="1.4 (e7c3feb100, 2024-10-09)"
   inkscape:export-filename="tilemarks_new.png"
   inkscape:export-xdpi="96"
   inkscape:export-ydpi="96"
   xmlns:inkscape="http://www.inkscape.org/namespaces/inkscape"
   xmlns:sodipodi="http://sodipodi.sourceforge.net/DTD/sodipodi-0.dtd"
   xmlns="http://www.w3.org/2000/svg"
   xmlns:svg="http://www.w3.org/2000/svg">
  <defs
     id="defs1" />
  <sodipodi:namedview
     id="namedview1"
     pagecolor="#505050"
     bordercolor="#eeeeee"
     borderopacity="1"
     inkscape:showpageshadow="0"
     inkscape:pageopacity="0"
     inkscape:pagecheckerboard="0"
     inkscape:deskcolor="#505050"
     inkscape:zoom="1.7583333"
     inkscape:cx="73.933649"
     inkscape:cy="67.109005"
     inkscape:window-width="2194"
     inkscape:window-height="1162"
     inkscape:window-x="0"
     inkscape:window-y="0"
     inkscape:window-maximized="1"
     inkscape:current-layer="g1"
     showguides="true"
     inkscape:document-units="mm" />
  <g
     inkscape:groupmode="layer"
     inkscape:label="Image"
     id="g1">
    <path
       id="path2"
       style="fill:#ffffff;fill-opacity:1;fill-rule:evenodd;stroke:#000000;stroke-width:1.98;stroke-miterlimit:1;stroke-dasharray:none;stroke-opacity:1"
       d="m 24.978516,2.140625 a 21.812708,21.812708 0 0 0 -21.8125004,21.8125 21.812708,21.812708 0 0 0 21.8125004,21.8125 21.812708,21.812708 0 0 0 21.8125,-21.8125 21.812708,21.812708 0 0 0 -21.8125,-21.8125 z m 0,9.035156 A 12.778097,12.778097 0 0 1 37.755859,23.953125 12.778097,12.778097 0 0 1 24.978516,36.732422 12.778097,12.778097 0 0 1 12.199219,23.953125 12.778097,12.778097 0 0 1 24.978516,11.175781 Z" />
    <path
       id="path6"
       style="fill:#ffffff;fill-opacity:1;fill-rule:evenodd;stroke:#000000;stroke-width:1.98;stroke-miterlimit:1;stroke-dasharray:none;stroke-opacity:1"
       d="M 59.203533,3.8845768 52.330647,11.129538 66.07642,24.762995 52.349529,38.758339 58.448271,45.827181 72.880859,31.513378 87.313448,45.827181 93.41219,38.758339 79.685299,24.762995 93.431072,11.129538 86.558186,3.8845768 72.880859,17.826845 Z" />
    <path
       id="path7"
       style="fill:#ffffff;fill-opacity:1;fill-rule:evenodd;stroke:#000000;stroke-width:1.98;stroke-miterlimit:1;stroke-dasharray:none;stroke-opacity:1"
       d="m 101.01626,2.2629468 0.027,5.1794877 v 7.0739595 h 0.0373 l 0.0311,5.866442 h -0.0683 v 7.371082 h 0.10553 l 0.0269,5.260309 h -0.13244 v 7.371083 h 0.17176 l 0.0269,5.307848 h 9.18763 V 40.38531 H 129.912 l 0.0269,5.307848 h 9.18763 V 2.2629468 h -9.41526 l 0.0249,4.7468742 -19.30646,0.090325 V 2.2629468 Z m 9.41318,12.2534472 h 19.34577 l 0.0311,5.728577 -19.37681,0.0927 z m 0,13.237524 h 19.41614 l 0.0269,5.122443 -19.44304,0.0927 z" />
    <circle
       style="fill:#ffffff;fill-opacity:1;fill-rule:evenodd;stroke:#000000;stroke-width:1.98;stroke-miterlimit:1;stroke-dasharray:none;stroke-opacity:1"
       id="path11"
       cx="169.70563"
       cy="24.832518"
       r="7.8418479" />
    <path
       id="path17"
       style="fill:#ffffff;fill-opacity:1;fill-rule:evenodd;stroke:#000000;stroke-width:1.98;stroke-miterlimit:1;stroke-dasharray:none;stroke-opacity:1"
       d="m 169.4082,48.122689 -15.64062,28.720703 h 10.49219 v 10.734375 h 11.23242 V 76.843392 h 10.49804 z" />
    <path
       id="path18"
       style="fill:#ffffff;fill-opacity:1;fill-rule:evenodd;stroke:#000000;stroke-width:1.98;stroke-miterlimit:1;stroke-dasharray:none;stroke-opacity:1"
       d="M 24.434554,95.827766 8.7939336,67.107063 H 19.286124 V 56.372688 h 11.23242 v 10.734375 h 10.49804 z" />
    <path
       id="path19"
       style="fill:#ffffff;fill-opacity:1;fill-rule:evenodd;stroke:#000000;stroke-width:1.98;stroke-miterlimit:1;stroke-dasharray:none;stroke-opacity:1"
       d="m 48.179835,71.507571 28.720703,-15.64062 v 10.49219 h 10.734375 v 11.23242 H 76.900538 v 10.49804 z" />
    <path
       id="path20"
       style="fill:#ffffff;fill-opacity:1;fill-rule:evenodd;stroke:#000000;stroke-width:1.98;stroke-miterlimit:1;stroke-dasharray:none;stroke-opacity:1"
       d="m 145.31565,71.507571 -28.72071,-15.64062 v 10.49219 h -10.73437 v 11.23242 h 10.73437 v 10.49804 z" />
    <path
       sodipodi:type="star"
       style="fill:#ffffff;fill-opacity:1;fill-rule:evenodd;stroke:#000000;stroke-width:1.98;stroke-miterlimit:1;stroke-dasharray:none;stroke-opacity:1"
       id="path21"
       inkscape:flatsided="false"
       sodipodi:sides="5"
       sodipodi:cx="24.530909"
       sodipodi:cy="120.84488"
       sodipodi:r1="20.99264"
       sodipodi:r2="10.49632"
       sodipodi:arg1="0.9349579"
       sodipodi:arg2="1.5632764"
       inkscape:rounded="0"
       inkscape:randomized="0"
       d="m 36.997436,137.73501 -12.387597,-6.39411 -12.290033,6.57969 2.253182,-13.75719 -10.0554833,-9.65529 13.7801403,-2.1083 6.075403,-12.546977 6.263412,12.454187 13.810289,1.90083 -9.909138,9.80541 z"
       inkscape:transform-center-x="0.048781704"
       inkscape:transform-center-y="-1.9581679" />
    <path
       id="path16"
       style="fill:#ffffff;fill-opacity:1;fill-rule:evenodd;stroke:#000000;stroke-width:1.98;stroke-miterlimit:1;stroke-dasharray:none;stroke-opacity:1"
       d="m 64.394531,104.6543 c -5.428663,0.0839 -10.651421,3.63119 -13.730469,8.71679 -1.191679,1.85572 -2.106884,4.98697 -0.292968,6.73047 2.202783,0.95082 4.714399,0.61326 6.505859,-1.19922 1.963909,-2.15796 3.653682,-5.06872 6.480469,-5.77539 2.913965,-0.48673 5.758526,0.91669 8.388672,2.20117 4.152332,2.13946 8.498629,4.83906 13.207031,3.95704 3.597183,-0.85711 7.25241,-2.71516 9.572266,-6.10938 1.350567,-1.47352 1.823426,-5.19917 -0.523438,-5.66601 -3.908369,0.29568 -7.085164,3.39731 -10.861328,4.29296 -3.314468,0.3479 -6.535916,-1.22534 -9.384766,-3.0332 -2.564816,-1.7957 -5.17956,-3.84269 -8.27539,-4.08398 -0.363186,-0.0257 -0.724027,-0.0369 -1.085938,-0.0312 z m -0.253906,16.34375 c -5.428663,0.0839 -10.649469,3.63118 -13.728516,8.71679 -1.19168,1.85573 -2.106884,4.98697 -0.292968,6.73047 2.202783,0.95082 4.714399,0.61131 6.505859,-1.20117 1.963909,-2.15797 3.653682,-5.06677 6.480469,-5.77344 2.913965,-0.48673 5.758526,0.9167 8.388672,2.20118 4.152332,2.13945 8.498629,4.83707 13.207031,3.95507 3.597183,-0.85712 7.25241,-2.71516 9.572266,-6.10937 1.350566,-1.47353 1.823426,-5.19721 -0.523438,-5.66406 -3.908369,0.29568 -7.085164,3.39731 -10.861328,4.29296 -3.314468,0.3479 -6.535916,-1.22533 -9.384766,-3.0332 -2.564816,-1.79571 -5.17956,-3.84268 -8.27539,-4.08398 -0.363186,-0.0257 -0.72598,-0.0369 -1.087891,-0.0312 z" />
    <rect
       style="fill:#ffffff;fill-opacity:1;fill-rule:evenodd;stroke:#000000;stroke-width:1.9829;stroke-miterlimit:1;stroke-dasharray:none;stroke-opacity:1"
       id="rect1"
       width="27.864067"
       height="27.864067"
       x="156.53729"
       y="-8.6782312"
       transform="matrix(0.73363884,0.67953959,-0.73363884,0.67953959,0,0)" />
    <path
       id="path3"
       style="fill:#ffffff;fill-rule:evenodd;stroke:#000000;stroke-width:1.98;stroke-miterlimit:1;stroke-dasharray:none;stroke-opacity:1"
       d="m 158.44657,99.756111 -10.03009,36.800459 h 19.50528 0.55492 19.50528 l -10.03009,-36.800459 -9.75265,35.781869 z" />
    <text
       xml:space="preserve"
       style="font-style:normal;font-variant:normal;font-weight:normal;font-stretch:normal;font-size:50.9881px;font-family:'Noto Sans Mono';-inkscape-font-specification:'Noto Sans Mono';text-align:start;writing-mode:lr-tb;direction:ltr;text-anchor:start;fill:#ffffff;fill-opacity:1;fill-rule:evenodd;stroke:#000000;stroke-width:1.91205;stroke-miterlimit:1;stroke-opacity:1"
       x="13.856977"
       y="170.85909"
       id="text4"
       transform="scale(0.90836826,1.1008751)"><tspan
         sodipodi:role="line"
         id="tspan4"
         x="13.856977"
         y="170.85909"
         style="font-style:normal;font-variant:normal;font-weight:bold;font-stretch:normal;font-family:'Noto Sans';-inkscape-font-specification:'Noto Sans Bold';stroke-width:1.91205">0</tspan></text>
    <text
       xml:space="preserve"
       style="font-style:normal;font-variant:normal;font-weight:bold;font-stretch:normal;font-size:57.957px;font-family:'Noto Sans';-inkscape-font-specification:'Noto Sans Bold';text-align:start;writing-mode:lr-tb;direction:ltr;text-anchor:start;fill:#ffffff;fill-opacity:1;fill-rule:evenodd;stroke:#000000;stroke-width:2.17339;stroke-miterlimit:1;stroke-opacity:1"
       x="55.998714"
       y="188.52516"
       id="text5"><tspan
         sodipodi:role="line"
         id="tspan5"
         x="55.998714"
         y="188.52516"
         style="stroke-width:2.17339">1</tspan></text>
    <text
       xml:space="preserve"
       style="font-style:normal;font-variant:normal;font-weight:bold;font-stretch:normal;font-size:55.6293px;font-family:'Noto Sans';-inkscape-font-specification:'Noto Sans Bold';text-align:start;writing-mode:lr-tb;direction:ltr;text-anchor:start;fill:#ffffff;fill-opacity:1;fill-rule:evenodd;stroke:#000000;stroke-width:2.0861;stroke-miterlimit:1;stroke-opacity:1"
       x="107.10313"
       y="185.8466"
       id="text10"
       transform="scale(0.98556386,1.0146476)"><tspan
         sodipodi:role="line"
         id="tspan10"
         x="107.10313"
         y="185.8466"
         style="stroke-width:2.0861">2</tspan></text>
    <text
       xml:space="preserve"
       style="font-style:normal;font-variant:normal;font-weight:bold;font-stretch:normal;font-size:52.8031px;font-family:'Noto Sans';-inkscape-font-specification:'Noto Sans Bold';text-align:start;writing-mode:lr-tb;direction:ltr;text-anchor:start;fill:#ffffff;fill-opacity:1;fill-rule:evenodd;stroke:#000000;stroke-width:1.98;stroke-miterlimit:1;stroke-dasharray:none;stroke-opacity:1"
       x="166.84842"
       y="176.0981"
       id="text11"
       transform="scale(0.93640359,1.0679156)"><tspan
         sodipodi:role="line"
         id="tspan11"
         x="166.84842"
         y="176.0981"
         style="stroke-width:1.98;stroke-dasharray:none">3</tspan></text>
    <text
       xml:space="preserve"
       style="font-style:normal;font-variant:normal;font-weight:bold;font-stretch:normal;font-size:50.9838px;font-family:'Noto Sans';-inkscape-font-specification:'Noto Sans Bold';text-align:start;writing-mode:lr-tb;direction:ltr;text-anchor:start;fill:#ffffff;fill-opacity:1;fill-rule:evenodd;stroke:#000000;stroke-width:1.91189;stroke-miterlimit:1;stroke-opacity:1"
       x="9.1844273"
       y="229.5871"
       id="text12"
       transform="scale(0.97237701,1.0284077)"><tspan
         sodipodi:role="line"
         id="tspan12"
         x="9.1844273"
         y="229.5871"
         style="stroke-width:1.91189">4</tspan></text>
    <text
       xml:space="preserve"
       style="font-style:normal;font-variant:normal;font-weight:bold;font-stretch:normal;font-size:51.0998px;font-family:'Noto Sans';-inkscape-font-specification:'Noto Sans Bold';text-align:start;writing-mode:lr-tb;direction:ltr;text-anchor:start;fill:#ffffff;fill-opacity:1;fill-rule:evenodd;stroke:#000000;stroke-width:1.91624;stroke-miterlimit:1;stroke-opacity:1"
       x="59.794937"
       y="232.84613"
       id="text13"
       transform="scale(0.98835344,1.0117838)"><tspan
         sodipodi:role="line"
         id="tspan13"
         x="59.794937"
         y="232.84613"
         style="stroke-width:1.91624">5</tspan></text>
    <text
       xml:space="preserve"
       style="font-style:normal;font-variant:normal;font-weight:bold;font-stretch:normal;font-size:51.1351px;font-family:'Noto Sans';-inkscape-font-specification:'Noto Sans Bold';text-align:start;writing-mode:lr-tb;direction:ltr;text-anchor:start;fill:#ffffff;fill-opacity:1;fill-rule:evenodd;stroke:#000000;stroke-width:1.91757;stroke-miterlimit:1;stroke-opacity:1"
       x="106.58383"
       y="235.59496"
       id="text14"><tspan
         sodipodi:role="line"
         id="tspan14"
         x="106.58383"
         y="235.59496"
         style="stroke-width:1.91757">6</tspan></text>
    <text
       xml:space="preserve"
       style="font-style:normal;font-variant:normal;font-weight:bold;font-stretch:normal;font-size:52.3599px;font-family:'Noto Sans';-inkscape-font-specification:'Noto Sans Bold';text-align:start;writing-mode:lr-tb;direction:ltr;text-anchor:start;fill:#ffffff;fill-opacity:1;fill-rule:evenodd;stroke:#000000;stroke-width:1.96349;stroke-miterlimit:1;stroke-opacity:1"
       x="153.98941"
       y="236.08334"
       id="text15"><tspan
         sodipodi:role="line"
         id="tspan15"
         x="153.98941"
         y="236.08334"
         style="stroke-width:1.96349">7</tspan></text>
  </g>
</svg>
